<?xml version="1.0" encoding="UTF-8"?>
<svg version="1.1" xmlns="http://www.w3.org/2000/svg" width="512" height="511">
<path d="M0 0 C168.96 0 337.92 0 512 0 C512 168.63 512 337.26 512 511 C343.04 511 174.08 511 0 511 C0 342.37 0 173.74 0 0 Z " fill="#FDFDFD" transform="translate(0,0)"/>
<path d="M0 0 C168.96 0 337.92 0 512 0 C512 168.63 512 337.26 512 511 C343.04 511 174.08 511 0 511 C0 342.37 0 173.74 0 0 Z M250.03125 3.75390625 C248.48244141 4.65302734 248.48244141 4.65302734 246.90234375 5.5703125 C245.21818359 6.55644531 245.21818359 6.55644531 243.5 7.5625 C242.32448406 8.24654988 241.14869853 8.93013667 239.97265625 9.61328125 C237.52629074 11.03482132 235.08110537 12.45836082 232.63671875 13.88330078 C227.10194981 17.10757169 221.55015895 20.30232174 216 23.5 C213.83586708 24.74857586 211.67180485 25.99727427 209.5078125 27.24609375 C205.14934612 29.76069436 200.78987809 32.27354661 196.4296875 34.78515625 C185.93767828 40.83055204 175.45524681 46.89121011 165 53 C147.09152374 63.46157659 129.11376099 73.80093513 111.09783936 84.07608032 C102.02088083 89.25480794 92.97931504 94.49159836 83.95898438 99.76831055 C76.4453932 104.16230778 68.91483033 108.52618604 61.375 112.875 C60.34487793 113.46933838 59.31475586 114.06367676 58.25341797 114.67602539 C50.51346802 119.13727242 42.75668641 123.56760777 35 128 C35 212.48 35 296.96 35 384 C47.375 390.93 47.375 390.93 60 398 C67.3125 402.375 67.3125 402.375 70.7734375 404.48046875 C76.60029976 407.98745822 82.52771045 411.32298416 88.4375 414.6875 C97.35967198 419.76824098 106.26272051 424.87761921 115.125 430.0625 C132.98789853 440.51005148 150.92658142 450.8239439 168.90216064 461.07608032 C177.98511283 466.25822754 187.03324392 471.49748429 196.05859375 476.77929688 C204.47770885 481.7044233 212.92427453 486.58097914 221.38623047 491.43212891 C226.73599581 494.50680891 232.05302899 497.62169558 237.3203125 500.8359375 C238.32046387 501.44236084 239.32061523 502.04878418 240.35107422 502.67358398 C242.23200137 503.81807604 244.10648803 504.97324655 245.97314453 506.14086914 C252.04191982 509.96015518 252.04191982 509.96015518 259 510 C261.56879396 508.74223798 263.84970991 507.46091299 266.25 505.9375 C267.76587264 505.01129287 269.28287503 504.08693314 270.80078125 503.1640625 C271.62916504 502.65649414 272.45754883 502.14892578 273.31103516 501.62597656 C278.30530848 498.60601466 283.37629174 495.71835765 288.4375 492.8125 C290.68633929 491.5171725 292.93503535 490.22159629 295.18359375 488.92578125 C296.31265137 488.27561035 297.44170898 487.62543945 298.60498047 486.95556641 C304.0716998 483.80667946 309.53574887 480.65316736 315 477.5 C317.16665311 476.2499765 319.33331979 474.99997653 321.5 473.75 C322.5725 473.13125 323.645 472.5125 324.75 471.875 C334.50000001 466.25 334.50000001 466.25 337.75048828 464.37475586 C339.91557071 463.12564482 342.08060982 461.87645871 344.24560547 460.62719727 C349.68615706 457.48797691 355.12747216 454.35009437 360.5703125 451.21484375 C371.02206199 445.19252671 381.46299548 439.15330663 391.875 433.0625 C401.14330233 427.64177983 410.45464363 422.29940317 419.78341675 416.98379517 C428.90402811 411.78563033 437.99246103 406.53495172 447.04492188 401.21875 C456.98270466 395.39289955 466.99530811 389.7169668 477 384 C477 299.52 477 215.04 477 128 C468.75 123.38 460.5 118.76 452 114 C447.54595663 111.39609772 443.10664111 108.78514749 438.6875 106.125 C429.49021507 100.6337926 420.24648173 95.23681104 410.9375 89.9375 C410.35594147 89.60640228 409.77438293 89.27530457 409.17520142 88.93417358 C406.83875402 87.60419459 404.50223061 86.27434945 402.16548157 84.94490051 C396.05488238 81.46627838 389.96372066 77.95423335 383.875 74.4375 C382.81015381 73.82253662 381.74530762 73.20757324 380.64819336 72.57397461 C378.50462854 71.3357704 376.36115504 70.09740807 374.21777344 68.85888672 C368.81329355 65.73675395 363.40652588 62.61858796 358 59.5 C355.8333225 58.25001878 353.66665583 57.00001879 351.5 55.75 C349.89125 54.821875 349.89125 54.821875 348.25 53.875 C345 52 341.75 50.125 338.5 48.25 C337.42733887 47.63116943 336.35467773 47.01233887 335.24951172 46.37475586 C333.08442929 45.12564482 330.91939018 43.87645871 328.75439453 42.62719727 C323.31384294 39.48797691 317.87252784 36.35009437 312.4296875 33.21484375 C299.76768156 25.91917926 287.12534544 18.59108043 274.5078125 11.21875 C273.61868164 10.70054688 272.72955078 10.18234375 271.81347656 9.6484375 C269.77411624 8.45356065 267.74030636 7.24919417 265.70996094 6.0390625 C264.6274707 5.39710938 263.54498047 4.75515625 262.4296875 4.09375 C261.43952637 3.50271484 260.44936523 2.91167969 259.42919922 2.30273438 C255.33544489 0.10733005 253.85865158 1.52046752 250.03125 3.75390625 Z " fill="#FBFBFB" transform="translate(0,0)"/>
<path d="M0 0 C1.24644287 0.65295044 1.24644287 0.65295044 2.51806641 1.3190918 C3.33702393 1.74480469 4.15598145 2.17051758 4.99975586 2.60913086 C5.86818115 3.09607422 6.73660645 3.58301758 7.63134766 4.0847168 C8.6193335 4.63764404 9.60731934 5.19057129 10.62524414 5.76025391 C11.68300049 6.35717041 12.74075684 6.95408691 13.83056641 7.5690918 C14.93924072 8.19243408 16.04791504 8.81577637 17.19018555 9.45800781 C26.65494843 14.79639969 36.04615658 20.25719645 45.42041016 25.75268555 C51.76853255 29.47244092 58.14168754 33.14804429 64.51806641 36.8190918 C72.86616461 41.62741293 81.20044887 46.45823552 89.51806641 51.3190918 C107.4264333 61.78085233 125.40430757 72.12002815 143.42022705 82.39517212 C152.49718557 87.57389974 161.53875137 92.81069016 170.55908203 98.08740234 C178.0726732 102.48139958 185.60323607 106.84527784 193.14306641 111.1940918 C194.17318848 111.78843018 195.20331055 112.38276855 196.26464844 112.99511719 C204.00459839 117.45636422 211.76138 121.88669957 219.51806641 126.3190918 C219.51806641 210.7990918 219.51806641 295.2790918 219.51806641 382.3190918 C211.26806641 386.9390918 203.01806641 391.5590918 194.51806641 396.3190918 C188.28031865 399.96884686 188.28031865 399.96884686 182.05712891 403.64331055 C176.38478028 407.00054644 170.66799758 410.28069805 164.95556641 413.5690918 C156.46150278 418.4605454 147.9804626 423.37305296 139.51806641 428.3190918 C121.60975753 438.78094995 103.63182411 449.1200288 85.61590576 459.39517212 C76.53295357 464.57731934 67.48482249 469.81657609 58.45947266 475.09838867 C50.04035756 480.0235151 41.59379188 484.90007093 33.13183594 489.7512207 C27.7820706 492.82590071 22.46503742 495.94078738 17.19775391 499.1550293 C16.19760254 499.76145264 15.19745117 500.36787598 14.16699219 500.99267578 C12.28606504 502.13716783 10.41157837 503.29233835 8.54492188 504.45996094 C0.46630048 509.36190146 0.46630048 509.36190146 -4.48193359 508.3190918 C-7.00935881 507.08214016 -9.24726755 505.82056509 -11.60693359 504.3190918 C-13.1171667 503.39478499 -14.62900695 502.4731011 -16.14208984 501.5534668 C-16.98271973 501.03977539 -17.82334961 500.52608398 -18.68945312 499.99682617 C-23.49184489 497.11152838 -28.37000361 494.35828813 -33.24194336 491.59274292 C-43.71784235 485.64338155 -54.14828483 479.61980532 -64.54711914 473.53662109 C-75.07167285 467.38213032 -85.63516613 461.29571951 -96.19970703 455.21020508 C-101.62853302 452.08229031 -107.05512641 448.95050732 -112.48193359 445.8190918 C-114.64858942 444.56907301 -116.81525609 443.31907301 -118.98193359 442.0690918 C-125.48193359 438.3190918 -125.48193359 438.3190918 -131.98193359 434.5690918 C-133.05459473 433.95026123 -134.12725586 433.33143066 -135.23242188 432.69384766 C-137.3975043 431.44473662 -139.56254342 430.1955505 -141.72753906 428.94628906 C-147.16809065 425.8070687 -152.60940575 422.66918617 -158.05224609 419.53393555 C-169.5305407 412.92014988 -180.99855416 406.2901327 -192.42578125 399.58837891 C-202.39992734 393.75112256 -212.44562041 388.0541279 -222.48193359 382.3190918 C-222.48193359 297.8390918 -222.48193359 213.3590918 -222.48193359 126.3190918 C-214.23193359 121.6990918 -205.98193359 117.0790918 -197.48193359 112.3190918 C-191.24418584 108.66933673 -191.24418584 108.66933673 -185.02099609 104.99487305 C-179.34864747 101.63763715 -173.63186477 98.35748554 -167.91943359 95.0690918 C-159.42536996 90.17763819 -150.94432979 85.26513064 -142.48193359 80.3190918 C-124.57362472 69.85723364 -106.59569129 59.51815479 -88.57977295 49.24301147 C-79.49539773 44.06005236 -70.44620717 38.81937851 -61.41894531 33.53759766 C-53.04727614 28.64105264 -44.65468105 23.78139986 -36.23852539 18.96166992 C-30.67694442 15.77044072 -25.15549122 12.52919419 -19.68115234 9.19018555 C-18.58738281 8.53018555 -17.49361328 7.87018555 -16.36669922 7.19018555 C-14.27941266 5.92786808 -12.20077628 4.65110311 -10.13232422 3.3581543 C-9.1996875 2.79741211 -8.26705078 2.23666992 -7.30615234 1.65893555 C-6.49235107 1.15740967 -5.6785498 0.65588379 -4.84008789 0.13916016 C-2.48193359 -0.6809082 -2.48193359 -0.6809082 0 0 Z M-7.30224609 19.8894043 C-8.79872681 20.72846313 -8.79872681 20.72846313 -10.32543945 21.58447266 C-11.94977905 22.50498413 -11.94977905 22.50498413 -13.60693359 23.4440918 C-14.72914307 24.07645752 -15.85135254 24.70882324 -17.00756836 25.36035156 C-26.5234983 30.73238931 -35.96483524 36.23077261 -45.39208984 41.7565918 C-51.69763779 45.4512249 -58.02487796 49.10761861 -64.35693359 52.7565918 C-65.4370874 53.37912842 -66.51724121 54.00166504 -67.63012695 54.64306641 C-69.81989693 55.90486006 -72.00975714 57.16649714 -74.19970703 58.42797852 C-78.546105 60.9322331 -82.89103632 63.43902532 -87.23583984 65.94604492 C-90.48696838 67.82199695 -93.73835733 69.69749709 -96.98974609 71.57299805 C-101.29795011 74.05840081 -105.60516149 76.54551156 -109.91162109 79.03393555 C-120.53597096 85.17117754 -131.17050041 91.28947514 -141.82879639 97.36752319 C-154.07760899 104.35300004 -166.27732006 111.41882523 -178.4453125 118.54418945 C-181.7187808 120.45752878 -184.99641852 122.36357892 -188.27490234 124.26831055 C-189.38639648 124.91461426 -190.49789062 125.56091797 -191.64306641 126.22680664 C-193.78890596 127.47433572 -195.93536744 128.72079579 -198.08251953 129.96606445 C-199.03803711 130.52213379 -199.99355469 131.07820313 -200.97802734 131.65112305 C-201.82550537 132.14330322 -202.6729834 132.6354834 -203.54614258 133.14257812 C-205.41638775 134.17454301 -205.41638775 134.17454301 -206.48193359 135.3190918 C-206.5999733 138.3645011 -206.65205558 141.38784159 -206.66275024 144.43437195 C-206.66995476 145.40287844 -206.67715928 146.37138493 -206.68458211 147.36924011 C-206.70745127 150.64116774 -206.72292145 153.91308766 -206.73828125 157.18505859 C-206.75272092 159.5202707 -206.76747842 161.85548086 -206.78253174 164.19068909 C-206.91288561 185.52163434 -206.97890952 206.85311143 -207.03037453 228.18439007 C-207.03738371 231.03943092 -207.04451064 233.89447146 -207.05175781 236.74951172 C-207.0535531 237.45913867 -207.0553484 238.16876562 -207.05719809 238.89989642 C-207.0872599 250.39349566 -207.15201955 261.88663758 -207.23044427 273.37999763 C-207.31026329 285.17511829 -207.35605472 296.97000211 -207.36940038 308.76538783 C-207.37781158 315.39013026 -207.40265334 322.01415192 -207.46406937 328.63864708 C-207.52119362 334.87120109 -207.53602209 341.10241904 -207.51819611 347.33519554 C-207.51907659 349.62418069 -207.53541111 351.91321927 -207.56824112 354.20196915 C-207.61072923 357.32590877 -207.59781707 360.44489222 -207.57095337 363.56889343 C-207.59648682 364.47677996 -207.62202028 365.38466648 -207.64832747 366.32006472 C-207.59047134 368.94310363 -207.4425913 370.87384467 -206.48193359 373.3190918 C-203.75972075 375.90200294 -200.80447221 377.61067111 -197.48193359 379.3190918 C-196.02871704 380.18244141 -196.02871704 380.18244141 -194.54614258 381.06323242 C-193.27492554 381.76222656 -193.27492554 381.76222656 -191.97802734 382.4753418 C-191.00309326 383.01529785 -190.02815918 383.55525391 -189.02368164 384.11157227 C-187.48707886 384.95679443 -187.48707886 384.95679443 -185.91943359 385.8190918 C-177.4477466 390.52023747 -169.02567461 395.29060558 -160.66943359 400.1940918 C-151.97349051 405.29505998 -143.24195946 410.32933055 -134.48193359 415.3190918 C-125.68182887 420.33218482 -116.90817675 425.3869675 -108.16943359 430.5065918 C-99.36820095 435.6625895 -90.51201743 440.71188966 -81.62207031 445.71313477 C-75.47518437 449.17663001 -69.37691376 452.71041103 -63.30859375 456.30932617 C-55.95907888 460.65464722 -48.53674343 464.87248378 -41.11636353 469.09515381 C-34.54943482 472.83247368 -27.99552081 476.5882014 -21.48583984 480.42456055 C-19.84047241 481.39280762 -19.84047241 481.39280762 -18.16186523 482.38061523 C-16.08684923 483.60475519 -14.01429645 484.83308296 -11.94458008 486.06616211 C-11.01846924 486.61240234 -10.0923584 487.15864258 -9.13818359 487.72143555 C-8.331875 488.20088623 -7.52556641 488.68033691 -6.69482422 489.17431641 C-4.48987577 490.31498314 -2.95611193 491.10745129 -0.48193359 491.3190918 C2.10562044 490.32635876 2.10562044 490.32635876 4.77978516 488.70581055 C5.8070874 488.12259033 6.83438965 487.53937012 7.89282227 486.93847656 C8.98602783 486.30095459 10.0792334 485.66343262 11.20556641 485.0065918 C12.33679932 484.35940186 13.46803223 483.71221191 14.63354492 483.04541016 C17.93665154 481.15050097 21.22929788 479.23875662 24.51806641 477.3190918 C25.31535156 476.85470703 26.11263672 476.39032227 26.93408203 475.91186523 C30.29031653 473.95276091 33.63688342 471.97793882 36.97900391 469.99487305 C42.65135129 466.63763789 48.36808689 463.35739939 54.08056641 460.0690918 C62.64037789 455.14129902 71.18206867 450.18441042 79.70556641 445.1940918 C88.54547772 440.02135448 97.43954733 434.95275563 106.36645508 429.93188477 C111.95239689 426.78513274 117.50400041 423.59003521 123.01806641 420.3190918 C129.48988249 416.48001112 136.02203872 412.75795415 142.58056641 409.0690918 C153.58807374 402.87376938 164.50337144 396.52869794 175.40087891 390.14233398 C178.70736706 388.20836989 182.01841471 386.28240152 185.33056641 384.3581543 C186.43924072 383.71354248 187.54791504 383.06893066 188.69018555 382.40478516 C190.83198151 381.15974115 192.97437678 379.91572741 195.11743164 378.67285156 C196.07335205 378.11654053 197.02927246 377.56022949 198.01416016 376.98706055 C199.2853772 376.24879028 199.2853772 376.24879028 200.58227539 375.49560547 C202.45252056 374.46364058 202.45252056 374.46364058 203.51806641 373.3190918 C203.64499708 370.27835166 203.70605914 367.25944895 203.72579956 364.2172699 C203.74083973 362.76662686 203.74083973 362.76662686 203.75618374 361.2866779 C203.78848048 358.0194325 203.81328375 354.75217506 203.83789062 351.48486328 C203.85887343 349.15289582 203.88011975 346.82093072 203.90161133 344.4889679 C204.08954008 323.17893429 204.19237514 301.86810558 204.27375603 280.55741787 C204.28484442 277.70445615 204.29613666 274.85149532 204.30761719 271.99853516 C204.31188399 270.93488166 204.31188399 270.93488166 204.31623699 269.84974021 C204.36368704 258.37018253 204.45996971 246.89154719 204.57518826 235.41249155 C204.69248412 223.62868195 204.76043438 211.84535136 204.78188717 200.06097275 C204.79528462 193.44362531 204.83255476 186.8278057 204.92312241 180.21099663 C205.00748727 173.98297603 205.03057994 167.75772093 205.00675964 161.52920341 C205.00873901 159.24421022 205.03298093 156.95911071 205.08119583 154.6746254 C205.8220828 143.65877326 205.8220828 143.65877326 202.26808596 133.64599538 C198.79875334 130.5285999 194.85291173 128.98021617 190.51806641 127.3190918 C188.48462748 126.17400877 186.46686576 125.00005594 184.47509766 123.78393555 C182.42802166 122.6062383 180.37980819 121.43051642 178.33056641 120.2565918 C176.62763859 119.27758066 174.92471261 118.29856632 173.22189331 117.31936646 C171.4741118 116.31461881 169.72586044 115.31069265 167.97753906 114.30688477 C162.48667391 111.15186543 157.00262085 107.98506404 151.51806641 104.8190918 C149.34881991 103.56774753 147.17954903 102.31644551 145.01025391 101.06518555 C140.70204989 98.57978278 136.39483851 96.09267203 132.08837891 93.60424805 C120.28177157 86.78406542 108.45779641 79.9958592 96.61334229 73.24172974 C87.57477213 68.08573734 78.57529502 62.86588506 69.59570312 57.60791016 C61.34519938 52.78408743 53.05020711 48.04041279 44.7461853 43.30966187 C35.26764212 37.90850373 25.8274112 32.44429414 16.41845703 26.92260742 C12.11470776 24.40014063 7.80486305 21.88848455 3.46728516 19.42456055 C2.7527417 19.0174585 2.03819824 18.61035645 1.30200195 18.19091797 C-2.23392649 16.4628763 -4.07619044 18.07441727 -7.30224609 19.8894043 Z " fill="#383838" transform="translate(257.48193359375,1.680908203125)"/>
<path d="M0 0 C16.17 0 32.34 0 49 0 C49.02505615 4.37451416 49.0501123 8.74902832 49.07592773 13.25610352 C49.1595799 27.74478771 49.24819637 42.23343845 49.33933926 56.72207737 C49.39445329 65.50244968 49.44789758 74.28282605 49.49731445 83.06323242 C49.54042555 90.72245426 49.58676796 98.38164882 49.63687855 106.04082817 C49.6632647 110.09062583 49.68810888 114.14041884 49.70907402 118.19024849 C49.72892177 122.01432233 49.753141 125.83834528 49.78049088 129.66237259 C49.78971487 131.05414958 49.79743991 132.4459376 49.80341911 133.83773232 C49.10922705 159.94519445 49.10922705 159.94519445 60.38671875 182.4609375 C69.27470862 189.84893915 83.40334258 191.07075112 94.49584961 191.20532227 C95.20888245 191.21522186 95.92191528 191.22512146 96.65655518 191.23532104 C98.98845216 191.26664032 101.32036944 191.29157505 103.65234375 191.31640625 C105.27902219 191.3370014 106.90569559 191.3579985 108.53236389 191.37937927 C112.79509371 191.43433567 117.0578697 191.4838605 121.32067871 191.53222656 C126.4453354 191.5915126 131.5699085 191.65759385 136.69449615 191.72252655 C144.46294599 191.82020306 152.23145168 191.90928652 160 192 C160 205.86 160 219.72 160 234 C140.00798681 234.08021762 140.00798681 234.08021762 131.375 234.09765625 C125.5230743 234.10953389 119.67121217 234.12346387 113.81933594 234.15087891 C109.09251593 234.17288039 104.36576427 234.18462508 99.63889694 234.18975449 C97.85072125 234.19340194 96.06254857 234.20052147 94.27440262 234.21146011 C66.15276059 234.37638095 40.21181972 231.39472343 19 211 C1.91864425 191.57994909 -0.17658615 167.74247835 -0.11352539 143.04199219 C-0.11324268 141.47373964 -0.11340289 139.90548697 -0.1139679 138.3372345 C-0.1142526 134.11699348 -0.10840914 129.8967814 -0.10139394 125.67654705 C-0.09510556 121.25232277 -0.09455229 116.82809769 -0.09336853 112.40386963 C-0.09027129 104.04255305 -0.08207974 95.68124968 -0.07201904 87.3199389 C-0.06080777 77.7938461 -0.05533486 68.26775264 -0.05032361 58.74165487 C-0.03989565 39.16109426 -0.02157033 19.58055173 0 0 Z " fill="#333333" transform="translate(91,139)"/>
<path d="M0 0 C16.17 0 32.34 0 49 0 C49.04522683 21.02804262 49.08203566 42.05604558 49.10362434 63.08412457 C49.11391681 72.84882542 49.12793817 82.61349381 49.15087891 92.37817383 C49.1708751 100.89360874 49.18373117 109.40902013 49.18817699 117.92447788 C49.19077385 122.42920618 49.19683492 126.9338672 49.21146011 131.43857384 C49.22514267 135.68779564 49.22920131 139.93692312 49.22621536 144.18616486 C49.22676079 145.73682736 49.23067416 147.28749337 49.23841095 148.83813667 C49.29642753 161.0774601 48.60000227 172.99207818 44.3125 184.5625 C44.04977295 185.28010498 43.7870459 185.99770996 43.51635742 186.73706055 C37.3611622 202.96175628 27.29094695 215.62301518 12 224 C11.05640625 224.57814453 11.05640625 224.57814453 10.09375 225.16796875 C-6.66069688 234.75768506 -29.00426304 234.30909872 -47.71875 234.1953125 C-49.55676111 234.19157103 -51.39477425 234.18872944 -53.23278809 234.18673706 C-58.01334377 234.17918975 -62.79377316 234.15962053 -67.57427979 234.1373291 C-73.34067679 234.11302927 -79.1071166 234.1040472 -84.87355042 234.09242249 C-93.58245411 234.07318875 -102.29108207 234.03480473 -111 234 C-111 220.14 -111 206.28 -111 192 C-105.72515625 191.95101562 -100.4503125 191.90203125 -95.015625 191.8515625 C-91.65232582 191.81613202 -88.28905053 191.78014691 -84.92578125 191.7421875 C-79.60013445 191.68213188 -74.27452067 191.62401047 -68.94873047 191.578125 C-64.64976324 191.54095692 -60.35098279 191.49451655 -56.05217743 191.44193649 C-54.42097028 191.42355844 -52.78972336 191.40839095 -51.1584549 191.39665604 C-28.91807078 191.41400129 -28.91807078 191.41400129 -10.1875 180.625 C0.65612252 166.96152292 -0.86680623 147.327956 -0.79467773 130.89477539 C-0.78506444 129.45415488 -0.77505256 128.01353699 -0.76467896 126.57292175 C-0.73799676 122.71444593 -0.71679227 118.85595833 -0.69667697 114.99744344 C-0.6745869 110.94557589 -0.64731247 106.89374306 -0.62062073 102.84190369 C-0.57100127 95.19257343 -0.52595036 87.54322358 -0.48259836 79.89385551 C-0.43296063 71.1753918 -0.37814221 62.45696298 -0.32291877 53.73853314 C-0.20957167 35.8257199 -0.10331603 17.9128741 0 0 Z " fill="#333333" transform="translate(372,139)"/>
<path d="M0 0 C0.99 0.495 0.99 0.495 2 1 C1.01 2.32 0.02 3.64 -1 5 C113.84 5.495 113.84 5.495 231 6 C231 6.33 231 6.66 231 7 C71.61 7 -87.78 7 -252 7 C-252 6.67 -252 6.34 -252 6 C-137.655 5.505 -137.655 5.505 -21 5 C-21.33 4.34 -21.66 3.68 -22 3 C-21.34 2.34 -20.68 1.68 -20 1 C-19.13375 1.66 -18.2675 2.32 -17.375 3 C-13.61584807 5.22764559 -12.26055951 5.76690071 -8 5 C-5.81035154 3.77806134 -3.77386038 2.45456295 -1.734375 0.99609375 C-1.16203125 0.66738281 -0.5896875 0.33867187 0 0 Z " fill="#E4E4E4" transform="translate(267,504)"/>
</svg>
